<svg version="1.0" id="Warstwa_1" xmlns="http://www.w3.org/2000/svg" x="0" y="0" viewBox="0 0 986.7 94.5" xml:space="preserve"><style>.st0{fill:#d82f36}.st1{fill:#fff}</style><g id="XMLID_5_"><path id="XMLID_6_" class="st0" d="M37.5 0c5.2 0 10.1 1 14.6 2.9 4.5 2 8.5 4.6 11.9 8 3.4 3.4 6.1 7.4 8 11.9 2 4.6 3 9.5 3 14.7v57H55.8v-57c0-2.5-.5-4.9-1.4-7.1-1-2.3-2.3-4.2-3.9-5.9s-3.6-2.9-5.9-3.9c-2.3-.9-4.6-1.4-7.1-1.4s-4.9.5-7.1 1.4c-2.3 1-4.2 2.3-5.9 3.9s-3 3.6-3.9 5.9c-1 2.3-1.4 4.6-1.4 7.1v57H0v-57c0-5.2 1-10.1 2.9-14.6 2-4.5 4.6-8.5 8-11.9 3.4-3.4 7.4-6.1 11.9-8 4.6-2 9.5-3 14.7-3z"/><path id="XMLID_8_" class="st0" d="M132.7 0c5.2 0 10.1 1 14.6 2.9 4.5 2 8.5 4.6 11.9 8 3.4 3.4 6.1 7.4 8 11.9 1.9 4.6 2.9 9.4 2.9 14.6v57H151V75.6h-36.6v18.9H95.2v-57c0-5.2 1-10.1 2.9-14.6 2-4.5 4.6-8.5 8-11.9 3.4-3.4 7.4-6.1 11.9-8 4.7-2 9.5-3 14.7-3zM151 37.5c0-2.5-.5-4.9-1.4-7.1-1-2.3-2.3-4.2-3.9-5.9s-3.6-2.9-5.9-3.9c-2.3-.9-4.6-1.4-7.1-1.4s-4.9.5-7.1 1.4c-2.3 1-4.2 2.3-5.9 3.9s-3 3.6-3.9 5.9c-1 2.3-1.4 4.6-1.4 7.1v18.9H151V37.5z"/><path id="XMLID_11_" class="st0" d="M271.5 0h19.2v64.9c0 4.1-.8 8-2.4 11.5-1.6 3.6-3.8 6.7-6.4 9.4-2.7 2.7-5.9 4.8-9.5 6.3-3.6 1.6-7.5 2.3-11.5 2.3-3.9 0-7.6-.7-11-2.1-3.5-1.4-6.5-3.3-9.2-5.9-2.6 2.5-5.7 4.5-9.1 5.9-3.5 1.4-7.2 2.1-11.1 2.1-4.1 0-8-.8-11.6-2.3-3.6-1.5-6.8-3.6-9.4-6.3-2.7-2.6-4.9-5.8-6.5-9.4-1.6-3.6-2.4-7.4-2.4-11.5V0h19.2v66.1c.4 2.6 1.6 4.8 3.6 6.6 2 1.8 4.4 2.7 7.1 2.7 2.8 0 5.2-.9 7.2-2.8 2-1.8 3.2-4.1 3.5-6.8V0h19.2v64.8c.1 2.9 1.2 5.4 3.2 7.5 2 2.1 4.6 3.2 7.6 3.2 2.6 0 4.9-.8 6.8-2.5 1.9-1.7 3.2-3.8 3.7-6.5V0z"/><path id="XMLID_13_" class="st0" d="M390.3 28c0 3.8-.7 7.3-2 10.6-1.4 3.3-3.2 6.1-5.5 8.6 2.3 2.5 4.1 5.4 5.5 8.6 1.3 3.3 2 6.7 2 10.4v28.2h-18.9V66.3c0-2.7-1-5-2.9-6.9-1.9-1.9-4.2-2.9-6.9-3H338V38h24.5c2.5-.2 4.6-1.2 6.3-3.2 1.7-1.9 2.6-4.1 2.6-6.8 0-2.5-.8-4.7-2.5-6.5-1.6-1.8-3.7-3-6.1-3.4h-32.7v76.3h-19.2V0h51.6c3.8 0 7.4.8 10.8 2.3 3.4 1.5 6.3 3.5 8.9 6.1 2.5 2.5 4.5 5.5 5.9 8.8 1.5 3.3 2.2 6.9 2.2 10.8z"/><path id="XMLID_15_" class="st0" d="M457.8 0c6.5 0 12.6 1.3 18.4 3.8 5.7 2.5 10.7 5.9 15 10.1 4.2 4.3 7.6 9.3 10.1 15 2.5 5.8 3.8 11.9 3.8 18.4 0 6.5-1.3 12.6-3.8 18.4-2.5 5.8-5.9 10.8-10.1 15.1-4.3 4.3-9.3 7.7-15 10.1-5.8 2.5-11.9 3.7-18.4 3.7-6.5 0-12.6-1.2-18.4-3.7-5.8-2.4-10.8-5.8-15.1-10.1-4.3-4.3-7.7-9.3-10.1-15.1-2.5-5.7-3.7-11.9-3.7-18.4 0-6.5 1.2-12.6 3.7-18.4 2.4-5.7 5.8-10.7 10.1-15 4.3-4.2 9.3-7.6 15.1-10.1 5.8-2.5 11.9-3.8 18.4-3.8zm.1 75.4c3.9 0 7.5-.8 11-2.3 3.4-1.5 6.4-3.5 8.9-6.1 2.6-2.5 4.6-5.5 6.1-8.9 1.5-3.4 2.3-7 2.3-10.9s-.8-7.5-2.3-11c-1.5-3.4-3.5-6.4-6.1-8.9-2.5-2.5-5.5-4.6-8.9-6.1-3.4-1.5-7.1-2.3-11-2.3s-7.6.8-10.9 2.3c-3.4 1.5-6.4 3.5-8.9 6.1-2.5 2.5-4.6 5.5-6 8.9-1.5 3.4-2.2 7.1-2.2 11s.7 7.6 2.2 10.9c1.4 3.4 3.5 6.4 6 8.9 2.6 2.5 5.5 4.6 8.9 6.1 3.4 1.6 7 2.3 10.9 2.3z"/><path id="XMLID_18_" class="st0" d="M572.7 75.4c6.2 0 11.7-1.8 16.4-5.3 4.7-3.5 8.1-8 10.1-13.4L617 63c-1.6 4.6-3.9 8.8-6.8 12.7-2.9 3.9-6.3 7.2-10.2 10-3.9 2.8-8.2 5-12.9 6.5-4.7 1.6-9.6 2.3-14.7 2.3-6.5 0-12.6-1.2-18.4-3.7-5.8-2.4-10.8-5.8-15.1-10.1-4.3-4.3-7.7-9.3-10.1-15.1-2.5-5.7-3.7-11.9-3.7-18.4 0-6.5 1.2-12.6 3.7-18.4 2.4-5.7 5.8-10.7 10.1-15 4.3-4.2 9.3-7.6 15.1-10.1 5.9-2.4 12-3.7 18.5-3.7 5.1 0 9.9.8 14.5 2.3 4.5 1.5 8.8 3.6 12.6 6.3 3.8 2.7 7.2 5.9 10.1 9.6 2.9 3.7 5.2 7.8 6.9 12.3l-17.7 6.4c-2-5.3-5.4-9.6-10.1-12.9-4.8-3.3-10.1-5-16.1-5-3.9 0-7.6.8-11 2.3-3.4 1.5-6.4 3.5-8.9 6.1-2.6 2.5-4.6 5.5-6 8.9-1.5 3.4-2.2 7.1-2.2 11s.7 7.6 2.2 10.9c1.4 3.4 3.4 6.4 6 8.9 2.5 2.5 5.5 4.6 8.9 6.1 3.4 1.5 7.1 2.2 11 2.2z"/><path id="XMLID_20_" class="st0" d="M705.7 27.2c-4.6 8.2-10.6 14.8-18.2 19.9 3.8 2.6 7.3 5.6 10.4 9 3.1 3.4 5.7 7.1 7.9 11.2 2.1 4 3.8 8.4 5 13 1.2 4.6 1.8 9.4 1.8 14.3h-19.1c0-5-.9-9.7-2.8-14.2-1.9-4.4-4.4-8.4-7.6-11.8-3.2-3.4-7-6.1-11.3-8.3-4.3-2.1-9-3.3-13.9-3.6h-1.3v37.8h-19.2V0h19.2v37.4h1.3c4.9-.3 9.5-1.5 13.9-3.5s8.1-4.7 11.3-8.1c3.2-3.3 5.7-7.2 7.6-11.6 1.8-4.4 2.8-9.1 2.8-14.1h19.1c-.1 9.9-2.4 19-6.9 27.1z"/><path id="XMLID_22_" class="st0" d="M772.6 19.2h-10.4v56.1h10.4v19.2h-39.9V75.3H743V19.2h-10.3V0h39.9v19.2z"/><path id="XMLID_24_" class="st1" d="M792.9 85c0-2.6.9-4.8 2.8-6.7 1.8-1.8 4.1-2.8 6.7-2.8 2.6 0 4.8.9 6.7 2.8 1.8 1.9 2.8 4.1 2.8 6.7 0 2.6-.9 4.8-2.8 6.7-1.9 1.9-4.1 2.8-6.7 2.8-2.6 0-4.8-.9-6.7-2.8-1.9-1.8-2.8-4-2.8-6.7z"/><path id="XMLID_26_" class="st1" d="M871.9 19.2h-10.4v56.1h10.4v19.2H832V75.3h10.3V19.2H832V0h39.9v19.2z"/><path id="XMLID_28_" class="st1" d="M939.4 0c6.5 0 12.6 1.3 18.4 3.8 5.7 2.5 10.7 5.9 15 10.1 4.2 4.3 7.6 9.3 10.1 15 2.5 5.8 3.8 11.9 3.8 18.4 0 6.5-1.3 12.6-3.8 18.4-2.5 5.8-5.9 10.8-10.1 15.1-4.3 4.3-9.3 7.7-15 10.1-5.8 2.5-11.9 3.7-18.4 3.7-6.5 0-12.6-1.2-18.4-3.7-5.8-2.4-10.8-5.8-15.1-10.1-4.3-4.3-7.7-9.3-10.1-15.1-2.5-5.7-3.7-11.9-3.7-18.4 0-6.5 1.2-12.6 3.7-18.4 2.4-5.7 5.8-10.7 10.1-15 4.3-4.2 9.3-7.6 15.1-10.1 5.8-2.5 11.9-3.8 18.4-3.8zm.2 75.4c3.9 0 7.5-.8 10.9-2.3 3.4-1.5 6.4-3.5 8.9-6.1 2.5-2.5 4.6-5.5 6.1-8.9 1.5-3.4 2.3-7 2.3-10.9s-.8-7.5-2.3-11c-1.5-3.4-3.5-6.4-6.1-8.9-2.6-2.5-5.5-4.6-8.9-6.1-3.4-1.5-7-2.3-10.9-2.3-3.9 0-7.6.8-11 2.3-3.4 1.5-6.4 3.5-8.9 6.1-2.6 2.5-4.6 5.5-6 8.9-1.5 3.4-2.2 7.1-2.2 11s.7 7.6 2.2 10.9c1.4 3.4 3.4 6.4 6 8.9 2.5 2.5 5.5 4.6 8.9 6.1 3.4 1.6 7.1 2.3 11 2.3z"/></g></svg>